# File created by Blade
# Date/Time:  Thu Jan 22 16:53:03 2015
#---------------------------------------------------------
:version 1.10
:name HOM
:units
  mass 1.0
  length 1.000000
  angle deg
:documentation
     Acclaim Skeleton File
:root
   axis xyz
   order TX TY TZ RX RY RZ
   position 0.000000 0.000000 0.000000
   orientation 0 0 0
:bonedata
   begin
      id 1
      name RightUpLeg_dum
      direction -1.000000 0.000000 0.000000
      length 3.766986
      axis 0.0 0.0 0.0 xyz
   end
   begin
      id 2
      name LeftUpLeg_dum
      direction 1.000000 0.000000 0.000000
      length 3.766986
      axis 0.0 0.0 0.0 xyz
   end
   begin
      id 3
      name Spine_dum
      direction 0.000000 1.000000 0.000000
      length 7.779697
      axis 0.0 0.0 0.0 xyz
   end
   begin
      id 4
      name RightUpLeg
      direction 0.000000 -1.000000 0.000000
      length 18.017682
      axis 0.0 0.0 0.0 xyz
      dof rx ry rz
   end
   begin
      id 5
      name RightLeg
      direction 0.000000 -1.000000 0.000000
      length 16.881075
      axis 0.0 0.0 0.0 xyz
      dof rx ry rz
   end
   begin
      id 6
      name RightFoot
      direction 0.000000 -0.258819 0.965926
      length 5.770812
      axis 15.0 0.0 0.0 xyz
      dof rx ry rz
   end
   begin
      id 7
      name RightToeBase
      direction 0.000000 0.000000 1.000000
      length 2.952750
      axis 0.0 0.0 0.0 xyz
      dof rx ry rz
   end
   begin
      id 8
      name LeftUpLeg
      direction 0.000000 -1.000000 0.000000
      length 18.017682
      axis 0.0 0.0 0.0 xyz
      dof rx ry rz
   end
   begin
      id 9
      name LeftLeg
      direction 0.000000 -1.000000 0.000000
      length 16.881075
      axis 0.0 0.0 0.0 xyz
      dof rx ry rz
   end
   begin
      id 10
      name LeftFoot
      direction 0.000000 -0.258819 0.965926
      length 5.770812
      axis 15.0 0.0 0.0 xyz
      dof rx ry rz
   end
   begin
      id 11
      name LeftToeBase
      direction 0.000000 0.000000 1.000000
      length 2.952750
      axis 0.0 0.0 0.0 xyz
      dof rx ry rz
   end
   begin
      id 12
      name Spine
      direction 0.000000 1.000000 0.000000
      length 0.000000
      axis 0.0 0.0 0.0 xyz
      dof rx ry rz
   end
   begin
      id 13
      name Spine_dum1
      direction 0.000000 1.000000 0.000000
      length 10.941760
      axis 0.0 0.0 0.0 xyz
   end
   begin
      id 14
      name Spine_dum2
      direction 0.000000 1.000000 0.000000
      length 10.941760
      axis 0.0 0.0 0.0 xyz
   end
   begin
      id 15
      name Spine_dum3
      direction 0.000000 1.000000 0.000000
      length 16.646042
      axis 0.0 0.0 0.0 xyz
   end
   begin
      id 16
      name RightShoulder
      direction -1.000000 0.000000 0.000000
      length 7.708937
      axis 0.0 0.0 90.0 xyz
      dof rx ry rz
   end
   begin
      id 17
      name RightArm
      direction -1.000000 0.000000 0.000000
      length 11.521345
      axis 0.0 0.0 90.0 xyz
      dof rx ry rz
   end
   begin
      id 18
      name RightForeArm
      direction -1.000000 0.000000 0.000000
      length 10.175898
      axis 0.0 0.0 90.0 xyz
      dof ry rz rx
   end
   begin
      id 19
      name RightHand
      direction -1.000000 0.000000 0.000000
      length 0.000000
      axis 0.0 0.0 90.0 xyz
      dof rx ry rz
   end
   begin
      id 20
      name RightHand_dum1
      direction -1.000000 0.000000 0.000000
      length 3.937000
      axis 0.0 0.0 90.0 xyz
   end
   begin
      id 21
      name RightHand_dum2
      direction 0.000000 0.000000 0.000000
      length 0.000000
      axis 0.0 0.0 90.0 xyz
   end
   begin
      id 22
      name RightHandThumb1
      direction 0.000000 0.000000 1.000000
      length 3.937000
      axis 0.0 0.0 90.0 xyz
      dof rx rz ry
   end
   begin
      id 23
      name LeftShoulder
      direction 1.000000 0.000000 0.000000
      length 7.708937
      axis 0.0 0.0 -90.0 xyz
      dof rx ry rz
   end
   begin
      id 24
      name LeftArm
      direction 1.000000 0.000000 0.000000
      length 11.521345
      axis 0.0 0.0 -90.0 xyz
      dof rx ry rz
   end
   begin
      id 25
      name LeftForeArm
      direction 1.000000 0.000000 0.000000
      length 10.175898
      axis 0.0 0.0 -90.0 xyz
      dof ry rz rx
   end
   begin
      id 26
      name LeftHand
      direction 1.000000 0.000000 0.000000
      length 0.000000
      axis 0.0 0.0 -90.0 xyz
      dof rx ry rz
   end
   begin
      id 27
      name LeftHand_dum1
      direction 1.000000 0.000000 0.000000
      length 3.937000
      axis 0.0 0.0 -90.0 xyz
   end
   begin
      id 28
      name LeftHand_dum2
      direction 0.000000 0.000000 0.000000
      length 0.000000
      axis 0.0 0.0 -90.0 xyz
   end
   begin
      id 29
      name LeftHandThumb1
      direction 0.000000 0.000000 1.000000
      length 3.937000
      axis 0.0 0.0 -90.0 xyz
      dof rx rz ry
   end
   begin
      id 30
      name Head
      direction 0.000000 1.000000 0.000000
      length 4.527550
      axis 0.0 0.0 0.0 xyz
      dof rx ry rz
   end
:hierarchy
   begin
      root RightUpLeg_dum LeftUpLeg_dum Spine_dum
      RightUpLeg_dum RightUpLeg
      LeftUpLeg_dum LeftUpLeg
      Spine_dum Spine
      RightUpLeg RightLeg
      RightLeg RightFoot
      RightFoot RightToeBase
      LeftUpLeg LeftLeg
      LeftLeg LeftFoot
      LeftFoot LeftToeBase
      Spine Spine_dum1 Spine_dum2 Spine_dum3
      Spine_dum1 RightShoulder
      Spine_dum2 LeftShoulder
      Spine_dum3 Head
      RightShoulder RightArm
      RightArm RightForeArm
      RightForeArm RightHand
      RightHand RightHand_dum1 RightHand_dum2
      RightHand_dum2 RightHandThumb1
      LeftShoulder LeftArm
      LeftArm LeftForeArm
      LeftForeArm LeftHand
      LeftHand LeftHand_dum1 LeftHand_dum2
      LeftHand_dum2 LeftHandThumb1
   end

# File created by Blade
# Date/Time:  Thu Jan 22 16:52:56 2015
# Frame Rate: 120.000 fps
#------------------------------------------------------
:FULLY-SPECIFIED
:DEGREES
427
root 2.116383 11.439683 2.102144 -39.965981 -4.949152 12.493170
RightUpLeg -75.300905 0.421252 -0.150376
RightLeg 136.877808 -0.000000 -0.000000
RightFoot -35.551023 -15.230207 17.767227
RightToeBase 7.182792 -0.000000 -0.000000
LeftUpLeg -65.643995 5.384837 7.983795
LeftLeg 129.764165 -0.000000 -0.000000
LeftFoot -27.933595 1.429874 -17.459587
LeftToeBase -2.128644 -0.000000 0.000000
Spine 73.147262 -3.392963 -3.344042
RightShoulder 8.441589 -19.728103 -18.180921
RightArm 31.136386 -12.842742 78.172627
RightForeArm 63.462338 -0.000000 22.557099
RightHand 13.389681 -0.000000 -9.122023
RightHandThumb1 -24.326973 -0.000000 -32.862282
LeftShoulder -8.276734 37.888703 7.751662
LeftArm 45.202512 17.713264 -62.955949
LeftForeArm -3.992529 -0.000000 14.710093
LeftHand -13.202939 -0.000000 -6.758947
LeftHandThumb1 -26.253704 0.000000 33.147579
Head 9.107812 -0.767374 5.494383
428
root 2.043644 11.320765 2.045523 -40.523676 -4.609226 12.376509
RightUpLeg -75.193449 0.433321 0.071125
RightLeg 137.048111 -0.000000 -0.000000
RightFoot -35.340456 -14.739033 17.988524
RightToeBase 6.470039 -0.000000 -0.000000
LeftUpLeg -65.583081 5.156522 8.283150
LeftLeg 129.805162 -0.000000 -0.000000
LeftFoot -27.531346 0.911800 -17.335593
LeftToeBase -2.207916 -0.000000 0.000000
Spine 73.355462 -2.809866 -3.661775
RightShoulder 8.639155 -19.685428 -18.479122
RightArm 31.234533 -13.777332 78.354439
RightForeArm 64.472735 -0.000000 22.400878
RightHand 13.146548 -0.000000 -9.081319
RightHandThumb1 -24.326973 -0.000000 -32.862282
LeftShoulder -8.384523 37.906724 7.161198
LeftArm 45.111691 16.969531 -63.434302
LeftForeArm -6.315960 0.000000 13.613076
LeftHand -13.427168 -0.000000 -7.508061
LeftHandThumb1 -26.253704 0.000000 33.147579
Head 8.509920 -0.722774 5.282095
429
root 1.974536 11.197067 1.988928 -41.039711 -4.252280 12.239730
RightUpLeg -75.155362 0.427277 0.285989
RightLeg 137.214936 -0.000000 -0.000000
RightFoot -35.125163 -14.296630 18.098799
RightToeBase 6.237523 -0.000000 -0.000000
LeftUpLeg -65.595717 4.931684 8.578628
LeftLeg 129.854976 -0.000000 -0.000000
LeftFoot -27.084879 0.296647 -17.258256
LeftToeBase -2.503241 -0.000000 0.000000
Spine 73.510834 -2.263317 -3.941528
RightShoulder 8.848321 -19.660204 -18.808675
RightArm 31.273106 -14.525105 78.711668
RightForeArm 65.331983 -0.000000 22.282713
RightHand 12.919590 0.000000 -9.024137
RightHandThumb1 -24.326973 -0.000000 -32.862282
LeftShoulder -8.434562 37.885748 6.622861
LeftArm 44.979500 16.247215 -63.921273
LeftForeArm -8.622316 -0.000000 12.502648
LeftHand -13.819873 -0.000000 -8.505664
LeftHandThumb1 -26.253704 0.000000 33.147579
Head 7.947064 -0.799832 5.006278
430
root 1.911172 11.069649 1.926445 -41.550618 -3.951965 12.050487
RightUpLeg -75.130284 0.435499 0.563018
RightLeg 137.322974 -0.000000 -0.000000
RightFoot -34.820405 -14.052033 17.926325
RightToeBase 5.956236 -0.000000 -0.000000
LeftUpLeg -65.642092 4.696839 8.892495
LeftLeg 129.916187 -0.000000 -0.000000
LeftFoot -26.649758 -0.208230 -17.145201
LeftToeBase -2.465272 -0.000000 0.000000
Spine 73.687138 -1.778568 -4.124044
RightShoulder 9.060894 -19.498206 -19.276780
RightArm 31.172939 -15.209407 79.239896
RightForeArm 66.273935 -0.000000 22.174493
RightHand 12.638273 -0.000000 -8.692813
RightHandThumb1 -24.326973 -0.000000 -32.862282
LeftShoulder -8.483949 37.836865 6.095249
LeftArm 44.902525 15.712761 -64.258262
LeftForeArm -11.157283 -0.000000 11.346014
LeftHand -13.993451 0.000000 -9.723757
LeftHandThumb1 -26.253704 0.000000 33.147579
Head 7.334157 -0.864347 4.605347
431
root 1.845601 10.938034 1.865906 -42.035287 -3.668432 11.858398
RightUpLeg -75.165464 0.483239 0.850447
RightLeg 137.430864 -0.000000 -0.000000
RightFoot -34.422550 -13.733522 17.808778
RightToeBase 5.611812 -0.000000 -0.000000
LeftUpLeg -65.728018 4.509487 9.282348
LeftLeg 129.980077 -0.000000 -0.000000
LeftFoot -26.047243 -0.862230 -16.947755
LeftToeBase -2.626864 -0.000000 0.000000
Spine 73.830076 -1.272638 -4.290778
RightShoulder 9.277743 -19.455351 -19.723534
RightArm 31.231624 -16.127061 79.484044
RightForeArm 67.441835 -0.000000 22.155738
RightHand 12.447124 0.000000 -8.706100
RightHandThumb1 -24.326973 -0.000000 -32.862282
LeftShoulder -8.499021 37.759381 5.660113
LeftArm 44.751334 15.017509 -64.886404
LeftForeArm -13.260603 -0.000000 10.111465
LeftHand -14.053011 -0.000000 -11.004451
LeftHandThumb1 -26.253704 0.000000 33.147579
Head 6.738039 -0.940931 4.206621
